<mxfile host="app.diagrams.net" modified="2021-02-25T00:44:46.348Z" agent="5.0 (Windows NT 10.0; Win64; x64) AppleWebKit/537.36 (KHTML, like Gecko) Chrome/88.0.4324.182 Safari/537.36 Edg/88.0.705.74" etag="M1xqsEo_aLXG4rJYVEPX" version="14.4.2" type="github">
  <diagram id="H_EOstA48fVWnjl5fOeQ" name="Page-1">
    <mxGraphModel dx="1550" dy="868" grid="1" gridSize="10" guides="1" tooltips="1" connect="1" arrows="1" fold="1" page="1" pageScale="1" pageWidth="827" pageHeight="1169" math="0" shadow="0">
      <root>
        <mxCell id="0" />
        <mxCell id="1" parent="0" />
        <mxCell id="oGB_ps-uAg7pBL2_Kq72-1" value="" style="rounded=0;whiteSpace=wrap;html=1;" vertex="1" parent="1">
          <mxGeometry x="354" y="140" width="120" height="60" as="geometry" />
        </mxCell>
        <mxCell id="oGB_ps-uAg7pBL2_Kq72-3" value="" style="edgeStyle=orthogonalEdgeStyle;rounded=0;orthogonalLoop=1;jettySize=auto;html=1;" edge="1" parent="1" source="oGB_ps-uAg7pBL2_Kq72-2" target="oGB_ps-uAg7pBL2_Kq72-1">
          <mxGeometry relative="1" as="geometry" />
        </mxCell>
        <mxCell id="oGB_ps-uAg7pBL2_Kq72-2" value="开始" style="rounded=1;whiteSpace=wrap;html=1;" vertex="1" parent="1">
          <mxGeometry x="354" y="30" width="120" height="60" as="geometry" />
        </mxCell>
      </root>
    </mxGraphModel>
  </diagram>
</mxfile>
